<svg width="3562" height="2000" viewBox="0 0 3562 2000" fill="none" xmlns="http://www.w3.org/2000/svg">
<g clip-path="url(#clip0_418_5762)">
<path d="M3560.5 0H-0.996094V1520.81H3560.5V0Z" fill="#DCF4FF"/>
<path d="M-0.996094 584.806C-0.996094 584.806 419.862 506.266 802.633 559.855C1185.4 613.444 1865.32 778.58 2429.41 687.123C2993.49 595.666 3559.52 559.855 3559.52 559.855V1425.88H-0.996094V584.806Z" fill="#B1E3FE"/>
<path d="M-0.996094 777.654L0.0733659 777.79C1177.35 927.335 2382.37 932.193 3561.99 792.148L3561.99 1658.33H-0.996094V777.654Z" fill="#99DCFE"/>
<path opacity="0.5" d="M3559.52 218.778C3459.24 257.475 3356.46 292.495 3251.59 323.733L3209.59 291.978L3210.08 291.862L2977.52 117.547L2409.88 253.33L2642.44 427.646L2644.16 427.233L2680.19 453.027C2512.23 479.646 2341.19 497.171 2168.51 505.21C2139.46 506.562 2110.41 507.754 2081.34 508.802V403.669H2080.93L2080.08 257.881H1480.75L1481.59 403.669H1480.75V508.904C1450.79 507.833 1420.84 506.609 1390.9 505.216C1210.34 496.815 1031.57 478.069 856.246 449.408L887.218 427.232L888.943 427.645L1121.5 253.329L553.868 117.547L321.306 291.862L321.792 291.978L287.537 317.878C190.797 288.566 95.8559 256.028 3.05369 220.335L-0.996094 218.778V1356.93H3559.52V218.778ZM355.021 299.927L853.623 419.196L817.976 442.981C646.705 413.485 478.856 374.495 315.99 326.387L355.021 299.927ZM1513.82 510.027V475.665H2048.27V509.936C1870.22 515.655 1691.88 515.685 1513.82 510.027ZM2677.76 419.196L3176.36 299.927L3223.6 331.955C3059.83 379.524 2891.1 417.907 2718.99 446.705L2677.76 419.196Z" fill="#CDEFFF"/>
<path d="M3562 1276.56V2000H-1V1261.68C154.107 1228.43 310.616 1199.7 468.174 1175.5C720.071 1136.81 974.602 1109.69 1230.18 1094.15C1328.03 1088.19 1426.03 1083.94 1524.11 1081.37C1696.28 1076.87 1868.67 1077.6 2040.76 1083.56C2144.02 1087.12 2247.19 1092.58 2350.14 1099.91C2609.49 1118.38 2867.52 1148.78 3122.57 1191.11C3268.13 1215.26 3412.73 1243.31 3556.05 1275.23L3562 1276.56Z" fill="#93AB3F"/>
<path opacity="0.5" d="M2217.26 2000H1347.2L1524.11 1081.37C1696.28 1076.87 1868.67 1077.6 2040.76 1083.56L2217.26 2000Z" fill="#488C6C"/>
<path opacity="0.5" d="M1230.18 1094.15L749.038 2000H-1V1718.5L468.174 1175.5C720.071 1136.81 974.602 1109.69 1230.18 1094.15Z" fill="#488C6C"/>
<path opacity="0.5" d="M3562 1699.68V2000H2828.22L2350.14 1099.91C2609.49 1118.38 2867.52 1148.78 3122.57 1191.11L3562 1699.68Z" fill="#488C6C"/>
<path d="M1689.4 128.793C1649.27 123.75 1636.06 152.555 1636.06 152.555C1636.69 133.425 1571.34 97.4356 1533.74 135.121C1513.06 154.515 1515.36 178.516 1544.4 189.037H1739.42C1751.15 176.256 1720.02 173.986 1715.34 175.728C1715.34 175.728 1729.53 133.836 1689.4 128.793Z" fill="white"/>
<path d="M1086.41 86.2139C1026.89 82.5299 1026.17 130.171 1026.17 130.171C1026.17 130.171 999.116 112.044 979.605 135.026C980.82 133.972 938.168 122.471 928.414 149.083H1158.76C1157.89 141.264 1148.47 139.116 1134.49 137.918C1134.49 137.918 1138.31 89.4259 1086.41 86.2139Z" fill="white"/>
<path d="M2295.48 91.1741C2214.16 86.1401 2213.17 151.233 2213.17 151.233C2213.17 151.233 2176.21 126.466 2149.55 157.866C2151.21 156.426 2092.94 140.711 2079.61 177.073H2394.34C2393.15 166.389 2380.27 163.455 2361.18 161.818C2361.18 161.818 2366.39 95.5631 2295.48 91.1741Z" fill="white"/>
<path opacity="0.3" d="M2925.71 1968.6C2860.15 1925.8 2766.59 1887.43 2647.63 1854.58C2529.26 1821.88 2391.5 1796.22 2238.19 1778.32C2079.67 1759.8 1911.31 1750.41 1737.76 1750.41C1564.22 1750.41 1395.84 1759.8 1237.32 1778.32C1084.01 1796.22 946.258 1821.88 827.895 1854.58C708.923 1887.43 615.363 1925.8 549.807 1968.6C534.027 1978.91 520.018 1989.38 507.808 2000H537.639C546.067 1993.4 555.26 1986.85 565.204 1980.35C628.678 1938.9 719.83 1901.6 836.139 1869.48C1076.79 1803.01 1396.99 1766.41 1737.76 1766.41C2078.52 1766.41 2398.73 1803.01 2639.37 1869.48C2755.68 1901.6 2846.85 1938.9 2910.32 1980.35C2920.27 1986.85 2929.46 1993.4 2937.89 2000H2967.72C2955.5 1989.38 2941.49 1978.91 2925.71 1968.6Z" fill="white"/>
<path d="M2313.62 1211.45L2185.77 767.065C2185.46 765.894 2184.9 764.771 2184.11 763.778C2183.85 763.456 2183.57 763.152 2183.27 762.87C2181.95 761.608 2180.32 760.83 2178.63 760.539C2178.62 760.538 2178.62 760.537 2178.61 760.536C2178.12 760.452 2177.61 760.408 2177.1 760.408H1788.44H1399.78C1399.23 760.408 1398.69 760.458 1398.16 760.555H1398.16C1398.15 760.556 1398.14 760.557 1398.14 760.558C1396.5 760.86 1394.94 761.619 1393.64 762.831C1393.31 763.14 1393.01 763.474 1392.73 763.83C1391.95 764.81 1391.41 765.912 1391.11 767.062L1263.25 1211.45C1262.3 1214.78 1263.34 1218.36 1265.93 1220.65C1267.6 1222.13 1269.73 1222.9 1271.88 1222.9C1273.07 1222.9 1274.26 1222.67 1275.39 1222.18L1481.11 1134.48H2095.77L2301.48 1222.18C2302.61 1222.67 2303.81 1222.9 2305 1222.9C2307.15 1222.9 2309.27 1222.13 2310.94 1220.65C2313.54 1218.36 2314.58 1214.78 2313.62 1211.45ZM1780.73 869.784V922.097H1719.4V869.784H1780.73ZM1926.07 869.784V922.097H1856.46V869.784H1926.07ZM1563.71 925.998H1641.99V971.941L1561.56 971.986L1563.71 925.998ZM1557.66 971.989L1497.29 972.023L1499.99 925.999H1559.8L1557.66 971.989ZM1645.89 925.998H1715.5V971.9L1645.89 971.939V925.998ZM1719.4 925.998H1780.73V971.863L1719.4 971.897V925.998ZM1780.73 975.764V1025.96L1719.4 1025.99V975.798L1780.73 975.764ZM1784.63 975.762L1852.55 975.724V1025.92L1784.63 1025.95V975.762ZM1784.63 971.861V925.998H1852.55V971.823L1784.63 971.861ZM1856.46 925.998H1926.07V971.781L1856.46 971.82V925.998ZM1929.97 925.998H2008.25L2010.38 971.734L1929.97 971.779V925.998ZM2012.15 925.998H2076.88L2079.57 971.695L2014.28 971.732L2012.15 925.998ZM2011.97 922.098L2009.54 869.785H2073.58L2076.65 922.098H2011.97ZM2005.63 869.784L2008.07 922.097H1929.97V869.784H2005.63ZM1852.56 922.098H1784.63V869.785H1852.56V922.098ZM1715.5 922.098H1645.89V869.785H1715.5V922.098ZM1641.99 922.098H1563.89L1566.32 869.785H1641.99L1641.99 922.098ZM1559.98 922.098H1500.22L1503.3 869.785H1562.42L1559.98 922.098ZM1476.11 1026.55L1408.33 1029.62L1423.62 966.415L1479.14 974.954L1476.11 1026.55ZM1497.06 975.924L1557.48 975.89L1555.14 1026.08L1494.11 1026.12L1497.06 975.924ZM1561.38 975.888L1641.99 975.843V1026.04L1559.05 1026.08L1561.38 975.888ZM1645.89 975.84L1715.5 975.801V1025.99L1645.89 1026.03V975.84ZM1715.5 1029.89V1074.03L1645.89 1074.07V1029.93L1715.5 1029.89ZM1719.4 1029.89L1780.73 1029.86V1074L1719.4 1074.03V1029.89ZM1784.63 1029.86L1852.55 1029.82V1073.96L1784.63 1074V1029.86ZM1856.46 1029.82L1926.07 1029.78V1073.92L1856.46 1073.96V1029.82ZM1856.46 1025.91V975.722L1926.07 975.683V1025.88L1856.46 1025.91ZM1929.97 975.68L2010.56 975.635L2012.9 1025.83L1929.97 1025.87L1929.97 975.68ZM2014.47 975.633L2079.8 975.596L2082.75 1025.79L2016.8 1025.82L2014.47 975.633ZM2097.71 974.476L2145.35 967.149L2157.05 1028.81L2100.75 1026.26L2097.71 974.476ZM2149.21 966.555L2221.3 955.468L2243.53 1032.72L2161.06 1028.99L2149.21 966.555ZM2148.48 962.72L2137.06 902.521L2197.88 874.069L2220.21 951.688L2148.48 962.72ZM2144.62 963.314L2097.48 970.565L2094.64 922.361L2133.41 904.228L2144.62 963.314ZM2094.4 918.168L2091.24 864.413L2120.51 836.259L2132.66 900.272L2094.4 918.168ZM2078.42 851.84H2015.39L2038.85 823.361H2108.03L2078.42 851.84ZM2010.33 851.84H1935.92L1956.26 823.361H2033.8L2010.33 851.84ZM1959.05 819.46L1988.41 778.351H2070.89L2037.01 819.46H1959.05ZM1954.26 819.46H1878.48L1901.17 778.351H1983.62L1954.26 819.46ZM1951.47 823.361L1931.13 851.84H1860.61L1876.33 823.361H1951.47ZM1856.15 851.84H1784.63V823.361H1871.87L1856.15 851.84ZM1780.73 851.84H1715.8L1700.08 823.361H1780.73V851.84ZM1711.35 851.84H1640.83L1620.48 823.361H1695.63L1711.35 851.84ZM1617.7 819.46L1588.33 778.351H1670.78L1693.47 819.46H1617.7ZM1612.9 819.46H1534.94L1501.07 778.351H1583.54L1612.9 819.46ZM1615.69 823.361L1636.03 851.84H1561.62L1538.16 823.361H1615.69ZM1556.57 851.84H1498.45L1468.84 823.361H1533.1L1556.57 851.84ZM1485.64 864.412L1482.43 918.92L1439.92 899.035L1455.35 835.277L1485.64 864.412ZM1482.19 923.112L1479.37 971.042L1424.54 962.609L1438.98 902.904L1482.19 923.112ZM1420.67 962.014L1356.53 952.149L1378.8 874.751L1435.38 901.218L1420.67 962.014ZM1419.75 965.82L1404.27 1029.81L1333.26 1033.03L1355.44 955.929L1419.75 965.82ZM1332.12 1036.98L1403.31 1033.76L1386.36 1103.83L1305.43 1129.75L1332.12 1036.98ZM1407.37 1033.57L1475.88 1030.47L1473.2 1076.01L1390.71 1102.44L1407.37 1033.57ZM1493.88 1030.02L1554.96 1029.98L1552.9 1074.12L1491.28 1074.16L1493.88 1030.02ZM1558.86 1029.98L1641.99 1029.94V1074.07L1556.81 1074.12L1558.86 1029.98ZM1641.99 1077.97V1116.53H1554.83L1556.63 1078.02L1641.99 1077.97ZM1645.89 1077.97L1715.5 1077.93V1116.53H1645.89V1077.97ZM1719.4 1077.93L1780.73 1077.9V1116.53H1719.4V1077.93ZM1784.63 1077.9L1852.55 1077.86V1116.53H1784.63V1077.9ZM1856.46 1077.86L1926.07 1077.82V1116.53H1856.46V1077.86ZM1929.97 1077.82L2015.32 1077.77L2017.12 1116.53H1929.97V1077.82ZM1929.97 1073.92V1029.77L2013.08 1029.73L2015.14 1073.87L1929.97 1073.92ZM2016.98 1029.73L2082.98 1029.69L2085.57 1073.83L2019.04 1073.87L2016.98 1029.73ZM2100.98 1030.17L2157.8 1032.74L2170.04 1097.23L2103.67 1075.97L2100.98 1030.17ZM2161.81 1032.93L2244.67 1036.68L2271.43 1129.71L2174.27 1098.58L2161.81 1032.93ZM2196.79 870.273L2136.31 898.565L2123.87 833.028L2172.59 786.162L2196.79 870.273ZM2112.09 819.46H2042.07L2075.94 778.351H2154.83L2112.09 819.46ZM1788.44 778.351H1896.72L1874.03 819.46H1784.63V778.351H1788.44ZM1780.73 819.46H1697.93L1675.24 778.351H1780.73V819.46ZM1496.01 778.351L1529.89 819.46H1464.79L1422.05 778.351H1496.01ZM1404.28 786.162L1452.09 832.145L1436.31 897.348L1379.89 870.954L1404.28 786.162ZM1304.13 1134.27L1385.28 1108.27L1372.46 1161.29L1285.72 1198.28L1304.13 1134.27ZM1376.93 1159.39L1389.63 1106.88L1472.95 1080.19L1470.65 1119.43L1376.93 1159.39ZM1491.05 1078.06L1552.72 1078.02L1550.93 1116.53H1488.79L1491.05 1078.06ZM2021.03 1116.53L2019.22 1077.77L2085.8 1077.73L2088.08 1116.53L2021.03 1116.53ZM2103.92 1080.14L2170.87 1101.59L2180.24 1150.99L2106.23 1119.43L2103.92 1080.14ZM2184.56 1152.83L2175.1 1102.94L2272.73 1134.22L2291.16 1198.28L2184.56 1152.83Z" fill="white"/>
<path d="M2311.15 1206.48C2309.94 1202.31 2189.88 789.374 2186.29 772.486C2183.77 760.636 2174.78 761.45 2174.39 761.49L2174.28 761.496C2174.28 761.496 1413.93 761.406 1403.31 761.406C1393.69 761.406 1392.14 767.059 1392.08 767.3L1281.72 1150.89L1279.8 1150.33L1390.15 766.784C1390.21 766.525 1392.04 759.406 1403.31 759.406C1413.89 759.406 2167.99 759.495 2174.25 759.496C2175.22 759.425 2185.47 758.99 2188.25 772.07C2191.82 788.887 2311.86 1201.76 2313.07 1205.92L2311.15 1206.48Z" fill="#1D1D1B"/>
</g>
<defs>
<clipPath id="clip0_418_5762">
<rect width="3562" height="2000" fill="white"/>
</clipPath>
</defs>
</svg>
